Coordinates
version=1
nRows=34
nColumns=38
inDegrees=no

Units are S.I. units (second, meters, Newtons, ...)
If the header above contains a line with 'inDegrees', this indicates whether rotational values are in degrees (yes) or radians (no).

endheader
time	pelvis_tilt	pelvis_list	pelvis_rotation	pelvis_tx	pelvis_ty	pelvis_tz	hip_flexion_r	hip_adduction_r	hip_rotation_r	knee_angle_r	ankle_angle_r	subtalar_angle_r	mtp_angle_r	hip_flexion_l	hip_adduction_l	hip_rotation_l	knee_angle_l	ankle_angle_l	subtalar_angle_l	mtp_angle_l	lumbar_extension	lumbar_bending	lumbar_rotation	arm_flex_r	arm_add_r	arm_rot_r	elbow_flex_r	pro_sup_r	wrist_flex_r	wrist_dev_r	arm_flex_l	arm_add_l	arm_rot_l	elbow_flex_l	pro_sup_l	wrist_flex_l	wrist_dev_l
1.91	3.09708	1.2608	-1.36389	0.724626	1.39438	0.934661	0.124991	-0.059511	-0.286737	0.275192	-0.122466	0	0	-0.523599	-0.0733641	-0.130506	0.220942	-0.141229	0	0	-0.274299	0.104109	0.0957883	-0.121599	-0.834013	0.0068934	1.5865	0.445802	0	0	0.639734	-0.508339	0.818625	1.08263	0.649817	0	0
1.92	3.09575	1.26134	-1.36032	0.725404	1.40511	0.933306	0.1156	-0.0542102	-0.289819	0.25313	-0.127181	0	0	-0.523599	-0.079028	-0.132957	0.233317	-0.137004	0	0	-0.272908	0.104729	0.0943232	-0.119593	-0.833137	0.00842541	1.58376	0.451979	0	0	0.638105	-0.507899	0.816165	1.08201	0.650411	0	0
1.93	3.09309	1.26099	-1.35566	0.726223	1.41593	0.931996	0.110767	-0.0494508	-0.293087	0.253909	-0.131847	0	0	-0.523599	-0.0862073	-0.136069	0.251469	-0.127951	0	0	-0.272465	0.106176	0.0916386	-0.116038	-0.831026	0.0103972	1.58192	0.4606	0	0	0.634498	-0.509025	0.811024	1.08349	0.650944	0	0
1.94	3.09096	1.26064	-1.35226	0.72709	1.42687	0.93062	0.112262	-0.0463856	-0.297867	0.280049	-0.127278	0	0	-0.523599	-0.092436	-0.139369	0.270285	-0.122594	0	0	-0.27222	0.107501	0.0902544	-0.114745	-0.830479	0.0111626	1.58256	0.462138	0	0	0.631873	-0.510115	0.807767	1.08518	0.651212	0	0
1.95	3.08799	1.25985	-1.34902	0.728113	1.438	0.929273	0.114748	-0.0424365	-0.299728	0.315385	-0.122852	0	0	-0.523599	-0.0986679	-0.143625	0.290669	-0.119128	0	0	-0.272147	0.108901	0.0906436	-0.115528	-0.830538	0.0104646	1.58419	0.461737	0	0	0.630873	-0.511025	0.807614	1.0862	0.651652	0	0
1.96	3.08398	1.25871	-1.34557	0.729326	1.44933	0.928052	0.115318	-0.0367204	-0.298322	0.347913	-0.1173	0	0	-0.523599	-0.105221	-0.147688	0.31362	-0.116715	0	0	-0.272012	0.110297	0.0922551	-0.117183	-0.830713	0.00953333	1.58571	0.461477	0	0	0.630946	-0.511969	0.809914	1.08637	0.651437	0	0
1.97	3.07856	1.25723	-1.34081	0.730779	1.4609	0.927051	0.113327	-0.0294402	-0.296146	0.370082	-0.113016	0	0	-0.523599	-0.112765	-0.151245	0.339821	-0.116126	0	0	-0.271875	0.111801	0.0937049	-0.118052	-0.830446	0.0102709	1.58641	0.461782	0	0	0.630632	-0.513617	0.812531	1.0863	0.650109	0	0
1.98	3.07173	1.25576	-1.3349	0.732341	1.47257	0.926235	0.110767	-0.0220662	-0.294375	0.381921	-0.121406	0	0	-0.523599	-0.120838	-0.153707	0.369653	-0.117364	0	0	-0.271646	0.113831	0.0951699	-0.118416	-0.830238	0.0121627	1.58691	0.461535	0	0	0.629407	-0.515299	0.814143	1.08606	0.648442	0	0
1.99	3.0653	1.255	-1.32999	0.733937	1.48436	0.925522	0.108542	-0.0152093	-0.291874	0.386701	-0.145886	0	0	-0.523599	-0.128216	-0.153875	0.403166	-0.121362	0	0	-0.270598	0.115632	0.0970007	-0.119016	-0.830189	0.014385	1.58759	0.461699	0	0	0.626905	-0.516754	0.814287	1.086	0.646883	0	0
2	3.05979	1.25451	-1.32648	0.735662	1.49628	0.924943	0.104763	-0.00786069	-0.287305	0.387172	-0.179212	0	0	-0.523599	-0.134888	-0.150501	0.440729	-0.128344	0	0	-0.269081	0.116901	0.0993471	-0.119832	-0.829854	0.0166716	1.58798	0.462486	0	0	0.623657	-0.51796	0.813349	1.08588	0.64568	0	0
2.01	3.05623	1.25302	-1.32474	0.737503	1.50836	0.924545	0.0976668	-0.000295955	-0.282109	0.386464	-0.214558	0	0	-0.523599	-0.141286	-0.143347	0.482976	-0.138882	0	0	-0.268366	0.117572	0.101879	-0.12128	-0.828668	0.018039	1.58821	0.463076	0	0	0.620465	-0.519261	0.812406	1.08594	0.644879	0	0
2.02	3.0532	1.25084	-1.32385	0.739445	1.52049	0.924342	0.0903228	0.00675934	-0.275822	0.390625	-0.243383	0	0	-0.519491	-0.147838	-0.134232	0.531564	-0.152515	0	0	-0.26854	0.118057	0.104898	-0.122851	-0.827256	0.0191719	1.58852	0.462404	0	0	0.617271	-0.520727	0.811483	1.0863	0.644622	0	0
2.03	3.0472	1.25	-1.32115	0.741408	1.5326	0.924233	0.0873694	0.0132965	-0.266955	0.404076	-0.263643	0	0	-0.503088	-0.154886	-0.125521	0.5885	-0.169573	0	0	-0.267257	0.119213	0.108741	-0.12405	-0.82589	0.0208747	1.58818	0.46269	0	0	0.613081	-0.521859	0.809888	1.08643	0.644697	0	0
2.04	3.03823	1.24835	-1.31657	0.743403	1.54447	0.92436	0.0859775	0.0202713	-0.256577	0.425019	-0.271674	0	0	-0.482838	-0.16275	-0.115651	0.652971	-0.190295	0	0	-0.267016	0.121526	0.113575	-0.124103	-0.824341	0.0225653	1.58701	0.46391	0	0	0.609256	-0.52259	0.808283	1.08625	0.644069	0	0
2.05	3.02605	1.23937	-1.30988	0.745569	1.55569	0.925232	0.0764971	0.0309057	-0.246132	0.444549	-0.270749	0	0	-0.466397	-0.173737	-0.106898	0.72118	-0.21662	0	0	-0.275784	0.126577	0.120618	-0.122208	-0.824668	0.0241648	1.5865	0.46546	0	0	0.609133	-0.522976	0.8087	1.08589	0.642732	0	0
2.06	3.01303	1.23246	-1.30133	0.747348	1.56693	0.925996	0.0675571	0.0402509	-0.240697	0.462084	-0.26483	0	0	-0.443874	-0.184653	-0.0956995	0.793463	-0.24733	0	0	-0.281984	0.132221	0.126929	-0.122478	-0.825835	0.0243356	1.58729	0.466264	0	0	0.608885	-0.52276	0.8099	1.08546	0.641023	0	0
2.07	2.99951	1.22385	-1.2911	0.748872	1.57791	0.926924	0.053718	0.0500403	-0.239839	0.473483	-0.257053	0	0	-0.419887	-0.196529	-0.0848378	0.866787	-0.281538	0	0	-0.29015	0.139136	0.132907	-0.12382	-0.828532	0.0230883	1.58968	0.465174	0	0	0.610174	-0.521878	0.812257	1.08471	0.638723	0	0
2.08	2.98732	1.21389	-1.2807	0.750206	1.58865	0.927894	0.0352692	0.0597743	-0.24246	0.479157	-0.248192	0	0	-0.39532	-0.20858	-0.0738205	0.939055	-0.312601	0	0	-0.300135	0.146401	0.138425	-0.126379	-0.832604	0.0204912	1.59337	0.46295	0	0	0.613028	-0.520986	0.815935	1.08467	0.635707	0	0
2.09	2.97847	1.20403	-1.27259	0.751508	1.59919	0.928767	0.0145733	0.0685697	-0.246524	0.481289	-0.238515	0	0	-0.369835	-0.219788	-0.0623486	1.00857	-0.336153	0	0	-0.310672	0.152412	0.143554	-0.130057	-0.83707	0.0165021	1.59812	0.45855	0	0	0.617166	-0.520701	0.820608	1.08576	0.631212	0	0
2.1	2.97462	1.19501	-1.2688	0.75284	1.6095	0.929614	-0.00681157	0.075661	-0.25134	0.481415	-0.228177	0	0	-0.343557	-0.228764	-0.0504637	1.07393	-0.354408	0	0	-0.321257	0.156005	0.14847	-0.134607	-0.841532	0.011813	1.60339	0.453598	0	0	0.622381	-0.520959	0.825944	1.08777	0.62619	0	0
2.11	2.9752	1.18744	-1.26924	0.754228	1.61956	0.930571	-0.027735	0.0809731	-0.256631	0.479805	-0.219241	0	0	-0.316376	-0.234572	-0.0381433	1.13484	-0.369117	0	0	-0.331237	0.157188	0.152925	-0.138384	-0.843348	0.00749803	1.60743	0.450693	0	0	0.627288	-0.521517	0.830069	1.09014	0.622606	0	0
2.12	2.97861	1.18092	-1.27249	0.755606	1.62932	0.931778	-0.0482139	0.0849355	-0.262824	0.47631	-0.211857	0	0	-0.287829	-0.236836	-0.025669	1.19207	-0.379121	0	0	-0.340983	0.156654	0.157333	-0.14186	-0.844752	0.00335717	1.61084	0.449307	0	0	0.632175	-0.521841	0.833657	1.09244	0.620483	0	0
2.13	2.98271	1.17533	-1.27611	0.756975	1.63892	0.933265	-0.0686912	0.0887927	-0.26929	0.469984	-0.206226	0	0	-0.257281	-0.236177	-0.0125171	1.24563	-0.377006	0	0	-0.349903	0.155199	0.161282	-0.144536	-0.844597	-0.00129433	1.61249	0.446727	0	0	0.636676	-0.521988	0.836712	1.09452	0.619065	0	0
2.14	2.98623	1.17025	-1.27865	0.758262	1.64846	0.934974	-0.0897406	0.0934037	-0.273824	0.460961	-0.201454	0	0	-0.228001	-0.233018	0.00362747	1.29467	-0.353935	0	0	-0.357884	0.153735	0.164761	-0.147189	-0.843654	-0.00580182	1.61289	0.444688	0	0	0.641127	-0.521984	0.840466	1.0961	0.617466	0	0
2.15	2.99126	1.16563	-1.2823	0.759439	1.65803	0.936892	-0.112016	0.0976743	-0.275609	0.448802	-0.198714	0	0	-0.200852	-0.230013	0.01573	1.33668	-0.318185	0	0	-0.364767	0.151486	0.167286	-0.148821	-0.841674	-0.00888686	1.61149	0.444877	0	0	0.645312	-0.522111	0.845018	1.09678	0.615486	0	0
2.16	2.99749	1.16185	-1.28824	0.760729	1.66775	0.938929	-0.135206	0.10162	-0.274271	0.43429	-0.197034	0	0	-0.175153	-0.226094	0.0240213	1.37104	-0.28814	0	0	-0.370341	0.147889	0.169995	-0.149651	-0.839913	-0.010033	1.6094	0.445339	0	0	0.648455	-0.522853	0.849262	1.09735	0.61378	0	0
2.17	3.00409	1.15874	-1.29633	0.762252	1.67764	0.941002	-0.159078	0.105336	-0.271344	0.417952	-0.195569	0	0	-0.150539	-0.221034	0.0288872	1.39814	-0.265722	0	0	-0.374998	0.143223	0.173853	-0.150556	-0.837816	-0.0106505	1.60753	0.445552	0	0	0.650898	-0.524226	0.85344	1.09818	0.612016	0	0
2.18	3.0112	1.15593	-1.30695	0.763902	1.68755	0.943084	-0.182994	0.108003	-0.268586	0.401644	-0.194419	0	0	-0.127506	-0.214813	0.030815	1.41774	-0.251965	0	0	-0.379394	0.137879	0.179127	-0.151039	-0.834729	-0.0107618	1.60524	0.446741	0	0	0.652456	-0.525584	0.856622	1.09893	0.610617	0	0
2.19	3.01861	1.15373	-1.31998	0.765596	1.69744	0.945108	-0.205919	0.109123	-0.267074	0.385876	-0.194332	0	0	-0.105631	-0.207651	0.029921	1.4299	-0.243706	0	0	-0.383271	0.131791	0.186022	-0.151765	-0.8318	-0.0113356	1.60344	0.447979	0	0	0.653565	-0.526741	0.859444	1.09958	0.609529	0	0
2.2	3.02608	1.15211	-1.33526	0.767286	1.70728	0.947032	-0.227208	0.108572	-0.266486	0.371462	-0.195187	0	0	-0.0846563	-0.200505	0.0247284	1.43508	-0.240762	0	0	-0.386904	0.125142	0.194616	-0.1528	-0.829783	-0.0123391	1.60263	0.447633	0	0	0.653699	-0.527254	0.860557	1.1	0.609302	0	0
2.21	3.0347	1.14885	-1.35237	0.768921	1.717	0.948912	-0.249912	0.10704	-0.26675	0.356781	-0.198602	0	0	-0.0676701	-0.19458	0.0168246	1.43488	-0.236631	0	0	-0.395541	0.123223	0.20125	-0.1053	-0.751703	-0.041869	1.56723	0.456851	0	0	0.646866	-0.529801	0.8499	1.10342	0.610005	0	0
2.22	3.04601	1.14952	-1.37047	0.770277	1.72716	0.950485	-0.267733	0.102546	-0.271897	0.345284	-0.200293	0	0	-0.0482186	-0.18725	0.00840566	1.42983	-0.230504	0	0	-0.393739	0.110034	0.2124	-0.161435	-0.822681	-0.0232331	1.60464	0.454538	0	0	0.653492	-0.526628	0.860902	1.10051	0.610424	0	0
2.23	3.06001	1.14769	-1.38897	0.771411	1.7374	0.951892	-0.288343	0.0974494	-0.280977	0.334131	-0.200753	0	0	-0.0323151	-0.181243	-0.00348459	1.42035	-0.223132	0	0	-0.39858	0.106781	0.213507	-0.11217	-0.747326	-0.0468235	1.56816	0.462436	0	0	0.645401	-0.530952	0.850953	1.10448	0.610368	0	0
2.24	3.06504	1.145	-1.40412	0.772854	1.74695	0.953154	-0.306809	0.0953866	-0.275745	0.325654	-0.200743	0	0	-0.0175486	-0.181848	-0.025975	1.40752	-0.216815	0	0	-0.401019	0.0962431	0.228363	-0.166965	-0.822705	-0.0274598	1.60734	0.45494	0	0	0.653848	-0.527193	0.861686	1.10239	0.610637	0	0
